<mxfile host="Electron" agent="Mozilla/5.0 (Windows NT 10.0; Win64; x64) AppleWebKit/537.36 (KHTML, like Gecko) draw.io/26.0.9 Chrome/128.0.6613.186 Electron/32.2.5 Safari/537.36" version="26.0.9">
  <diagram name="Page-1" id="tRFJW0z-zQq9aHD96qDD">
    <mxGraphModel dx="1418" dy="820" grid="1" gridSize="10" guides="1" tooltips="1" connect="1" arrows="1" fold="1" page="1" pageScale="1" pageWidth="850" pageHeight="1100" math="0" shadow="0">
      <root>
        <mxCell id="0" />
        <mxCell id="1" parent="0" />
        <mxCell id="Z-EK29a1oNxjtTfZvJRf-3" style="edgeStyle=orthogonalEdgeStyle;rounded=0;orthogonalLoop=1;jettySize=auto;html=1;exitX=0.5;exitY=1;exitDx=0;exitDy=0;entryX=0.5;entryY=0;entryDx=0;entryDy=0;fontFamily=Courier New;fontStyle=1" parent="1" source="Z-EK29a1oNxjtTfZvJRf-1" target="Z-EK29a1oNxjtTfZvJRf-2" edge="1">
          <mxGeometry relative="1" as="geometry" />
        </mxCell>
        <mxCell id="Z-EK29a1oNxjtTfZvJRf-1" value="edit_username(username, new_username)" style="ellipse;whiteSpace=wrap;html=1;fontFamily=Courier New;fontStyle=1" parent="1" vertex="1">
          <mxGeometry x="365" y="30" width="165" height="80" as="geometry" />
        </mxCell>
        <mxCell id="Z-EK29a1oNxjtTfZvJRf-5" style="edgeStyle=orthogonalEdgeStyle;rounded=0;orthogonalLoop=1;jettySize=auto;html=1;exitX=0.5;exitY=1;exitDx=0;exitDy=0;entryX=0.5;entryY=0;entryDx=0;entryDy=0;fontFamily=Courier New;fontStyle=1" parent="1" source="Z-EK29a1oNxjtTfZvJRf-2" target="Z-EK29a1oNxjtTfZvJRf-4" edge="1">
          <mxGeometry relative="1" as="geometry" />
        </mxCell>
        <mxCell id="Z-EK29a1oNxjtTfZvJRf-2" value="EXECUTE SQL (&quot;UPDATE account SET username = ? WHERE username = ?, (new_name, username))" style="rounded=0;whiteSpace=wrap;html=1;fontFamily=Courier New;fontStyle=1" parent="1" vertex="1">
          <mxGeometry x="366.25" y="140" width="162.5" height="60" as="geometry" />
        </mxCell>
        <mxCell id="Z-EK29a1oNxjtTfZvJRf-7" style="edgeStyle=orthogonalEdgeStyle;rounded=0;orthogonalLoop=1;jettySize=auto;html=1;exitX=0.5;exitY=1;exitDx=0;exitDy=0;entryX=0.5;entryY=0;entryDx=0;entryDy=0;fontFamily=Courier New;fontStyle=1" parent="1" source="Z-EK29a1oNxjtTfZvJRf-4" target="Z-EK29a1oNxjtTfZvJRf-6" edge="1">
          <mxGeometry relative="1" as="geometry" />
        </mxCell>
        <mxCell id="Z-EK29a1oNxjtTfZvJRf-4" value="COMMIT CHANGES" style="rounded=0;whiteSpace=wrap;html=1;fontFamily=Courier New;fontStyle=1" parent="1" vertex="1">
          <mxGeometry x="387.5" y="230" width="120" height="60" as="geometry" />
        </mxCell>
        <mxCell id="Z-EK29a1oNxjtTfZvJRf-9" style="edgeStyle=orthogonalEdgeStyle;rounded=0;orthogonalLoop=1;jettySize=auto;html=1;exitX=0.5;exitY=1;exitDx=0;exitDy=0;entryX=0.5;entryY=0;entryDx=0;entryDy=0;fontFamily=Courier New;fontStyle=1" parent="1" source="Z-EK29a1oNxjtTfZvJRf-6" target="Z-EK29a1oNxjtTfZvJRf-8" edge="1">
          <mxGeometry relative="1" as="geometry" />
        </mxCell>
        <mxCell id="Z-EK29a1oNxjtTfZvJRf-6" value="PRINT (&quot;Name changed successfully&quot;)" style="rounded=0;whiteSpace=wrap;html=1;fontFamily=Courier New;fontStyle=1" parent="1" vertex="1">
          <mxGeometry x="387.5" y="310" width="120" height="60" as="geometry" />
        </mxCell>
        <mxCell id="Z-EK29a1oNxjtTfZvJRf-8" value="EXIT" style="ellipse;whiteSpace=wrap;html=1;fontFamily=Courier New;fontStyle=1" parent="1" vertex="1">
          <mxGeometry x="411.25" y="400" width="72.5" height="50" as="geometry" />
        </mxCell>
      </root>
    </mxGraphModel>
  </diagram>
</mxfile>
